<svg version="1.1" id="Group_205728" xmlns:x="ns_extend;" xmlns:i="ns_ai;" xmlns:graph="ns_graphs;" xmlns="http://www.w3.org/2000/svg" xmlns:xlink="http://www.w3.org/1999/xlink" x="0px" y="0px" viewBox="0 0 151.8 62.4" style="enable-background:new 0 0 151.8 62.4;" xml:space="preserve">
 <style type="text/css">
  .st0{fill:#FFFFFF;}
	.st1{fill:#ED1C24;}
 </style>
 <metadata>
  <sfw xmlns="ns_sfw;">
   <slices>
   </slices>
   <sliceSourceBounds bottomLeftOrigin="true" height="62.4" width="151.8" x="0" y="0">
   </sliceSourceBounds>
  </sfw>
 </metadata>
 <g id="Group_208975" transform="translate(0 0)">
  <path id="Path_1" class="st0" d="M60,15.4c5.6-0.1,10.9,2.4,14.5,6.7c3.9,4.5,5.8,10.1,5.8,16.8c0,6.7-1.9,12.2-5.8,16.7
		c-6.9,8-18.9,9-26.9,2.1c-0.8-0.6-1.5-1.4-2.1-2.1c-3.9-4.5-5.8-10-5.8-16.7c0-6.7,1.9-12.3,5.8-16.8C49,17.8,54.4,15.3,60,15.4
		 M60,57.6c4.4,0.1,8.5-1.9,11.3-5.3c6-7.9,6-18.9,0-26.8c-2.7-3.4-6.9-5.4-11.2-5.4c-4.4-0.1-8.6,1.9-11.3,5.3
		c-6.1,7.9-6.1,18.9,0,26.8C51.4,55.7,55.6,57.7,60,57.6">
  </path>
  <path id="Path_2" class="st0" d="M134.3,0v15.3h14.8v4h-14.8v27.4c0,4.4,0.4,7.3,1.2,8.7c0.8,1.4,3,2.1,6.6,2.1
		c3.3-0.1,6.6-0.9,9.7-2.3V60c-3.4,1.5-7.2,2.3-10.9,2.4c-3.1,0.1-6.2-0.8-8.8-2.6c-2.3-1.7-3.6-4.4-3.5-7.2V19.3h-14.3l4.6-4h9.7
		v-11l3.9-4.3L134.3,0z">
  </path>
  <path id="Path_3" class="st1" d="M126,62.1h-15l4.3-8.3H86.2l4.4,8.3H75.6l18.3-46.5h13.8L126,62.1z M108.2,47.6l-7.3-20l-9,25.4
		L108.2,47.6z">
  </path>
  <path id="Path_4" class="st0" d="M0,59.1V0h1.5l2.9,4.3l0,17.4c3.4-4.1,8.5-6.4,13.9-6.5c3.8-0.1,10.4,1.9,13.8,5.7
		c3.9,4.3,6.1,10,6,15.9c0,7.8-2,14.2-6.3,18.9s-10.1,6.5-17.1,6.5C9.6,62.3,4.6,61.2,0,59.1 M4.4,26.8L4.3,55.9
		c3.2,1.3,6.6,1.8,10.1,1.7c5.4,0,10.9-1.6,14.4-5.5c3.1-2.9,5.1-8.9,5.2-14.9c0.2-4.6-1.4-9.1-4.3-12.6c-2.7-3.4-6.7-5.3-11-5.2
		C13.6,19.3,9.1,20.7,4.4,26.8">
  </path>
 </g>
</svg>