<svg width="40" height="40" viewBox="0 0 40 40" fill="none" xmlns="http://www.w3.org/2000/svg">
<path d="M34 0.5C35.4587 0.5 36.8572 1.07988 37.8887 2.11133C38.9201 3.14278 39.5 4.54131 39.5 6V18C39.5 19.4587 38.9201 20.8572 37.8887 21.8887C36.8572 22.9201 35.4587 23.5 34 23.5H27.5V20.5H34L34.2471 20.4873C34.8194 20.4305 35.3573 20.1778 35.7676 19.7676C36.2364 19.2987 36.5 18.663 36.5 18V6C36.5 5.33696 36.2364 4.70126 35.7676 4.23242C35.2987 3.76358 34.663 3.5 34 3.5H22C21.337 3.5 20.7013 3.76358 20.2324 4.23242C19.7636 4.70126 19.5 5.33696 19.5 6V12.5H16.5V6C16.5 4.54131 17.0799 3.14278 18.1113 2.11133C19.1428 1.07988 20.5413 0.5 22 0.5H34Z" fill="black" stroke="black"/>
<path d="M18 16.5C19.4587 16.5 20.8572 17.0799 21.8887 18.1113C22.9201 19.1428 23.5 20.5413 23.5 22V34C23.5 35.4587 22.9201 36.8572 21.8887 37.8887C20.8572 38.9201 19.4587 39.5 18 39.5H6C4.54131 39.5 3.14278 38.9201 2.11133 37.8887C1.07988 36.8572 0.5 35.4587 0.5 34V22C0.5 20.5413 1.07988 19.1428 2.11133 18.1113C3.14278 17.0799 4.54131 16.5 6 16.5H18ZM6 19.5C5.33696 19.5 4.70126 19.7636 4.23242 20.2324C3.76358 20.7013 3.5 21.337 3.5 22V34C3.5 34.663 3.76358 35.2987 4.23242 35.7676C4.70126 36.2364 5.33696 36.5 6 36.5H18C18.663 36.5 19.2987 36.2364 19.7676 35.7676C20.2364 35.2987 20.5 34.663 20.5 34V22C20.5 21.337 20.2364 20.7013 19.7676 20.2324C19.3573 19.8222 18.8194 19.5695 18.2471 19.5127L18 19.5H6Z" fill="black" stroke="black"/>
</svg>
